<svg id="Capa_1" enable-background="new 0 0 509.662 509.662" height="512" viewBox="0 0 509.662 509.662" width="512" xmlns="http://www.w3.org/2000/svg"><g><g><path d="m321.504 243.604 28.604 29.25c4.615 4.719 12.318 4.335 16.441-.818l22.749-28.432h18.539c21.269 0 38.51-17.242 38.51-38.51v-159.084c0-21.269-17.242-38.51-38.51-38.51h-272.507c-21.269 0-38.51 17.242-38.51 38.51v159.083c0 21.269 17.242 38.51 38.51 38.51h186.174z" fill="#f37c7c"/><path d="m229.365 155.561-.598-.004c-11.684 0-22.667 4.56-30.914 12.84-8.304 8.336-12.717 19.788-12.717 31.554v19.571c0 6.744-9.084 8.901-12.122 2.88-2.625-5.202-4.105-11.082-4.105-17.308v-159.084c0-21.269 17.242-38.51 38.511-38.51h-72.09c-21.269 0-38.51 17.242-38.51 38.51v159.083c0 21.269 17.242 38.51 38.51 38.51h137.077v-43.88c-.001-24.03-19.309-43.841-43.042-44.162z" fill="#ee6161"/><path d="m358.387 132.179c21.158-21.158 21.158-55.462 0-76.62-21.158-21.158-55.462-21.158-76.62 0l-9.214 9.214-11.166-10.728c-21.273-20.439-54.988-20.103-75.85.755l-.759.759c-21.158 21.158-21.158 55.462 0 76.62l69.559 69.558c8.113 8.113 21.204 8.316 29.565.457z" fill="#f3f0f3"/><path d="m272.406 199.723c0-24.03-19.308-43.841-43.042-44.163l-.598-.004c-5.985 0-11.783 1.204-17.127 3.485l42.697 42.697c4.916 4.916 11.658 6.908 18.069 5.982v-7.997z" fill="#e2dee2"/><g><g id="XMLID_227_"><g><path d="m205.136 291.307v-92.11c0-6.53 2.64-12.44 6.92-16.72 4.352-4.352 10.378-7.008 17.039-6.918 13.014.176 23.311 11.149 23.311 24.164v123.663c0 4.374 3.546 7.92 7.92 7.92h13.07c14.144 0 25.61 11.466 25.61 25.61v68.15c0 3.58-1.15 7.06-3.28 9.94l-29.14 39.47v17.621c0 5.561-4.508 10.069-10.069 10.069h-164.391c-5.561 0-10.069-4.508-10.069-10.069v-30.271l-12.69-16.18c-3.92-5-6.05-11.17-6.05-17.53v-105.35-20.46c0-10.974 8.896-19.87 19.87-19.87h7.53c10.97 0 19.87 8.89 19.87 19.87v-7c0-10.974 8.896-19.87 19.87-19.87h7.53c9.64 0 17.66 6.85 19.48 15.94l.39-.07c0-10.98 8.9-19.87 19.87-19.87h7.54c10.969.001 19.869 8.891 19.869 19.871z" fill="#ffe5c2"/></g></g></g><g><path d="m123.983 492.097v-30.271l-12.69-16.18c-3.92-5-6.05-11.17-6.05-17.53v-105.35-20.46c0-3.618.982-7 2.672-9.922-3.436-5.942-9.844-9.948-17.199-9.948h-7.53c-10.974 0-19.87 8.896-19.87 19.87v20.46 105.35c0 6.36 2.13 12.53 6.05 17.53l12.69 16.18v30.271c0 5.561 4.508 10.069 10.069 10.069h41.927c-5.561.001-10.069-4.508-10.069-10.069z" fill="#fed2a4"/></g></g><g><path d="m407.837 0h-272.507c-25.371 0-46.011 20.64-46.011 46.01v159.083c0 25.37 20.64 46.01 46.011 46.01h39.803c4.142 0 7.5-3.358 7.5-7.5s-3.358-7.5-7.5-7.5h-39.803c-17.1 0-31.011-13.911-31.011-31.01v-159.083c0-17.099 13.911-31.01 31.011-31.01h272.507c17.1 0 31.011 13.911 31.011 31.01v159.083c0 17.099-13.911 31.01-31.011 31.01h-18.539c-2.278 0-4.433 1.036-5.856 2.814l-22.749 28.432c-.854 1.068-1.966 1.276-2.553 1.306-.582.028-1.714-.068-2.669-1.046l-28.604-29.25c-1.411-1.443-3.344-2.256-5.362-2.256h-39.099c-4.143 0-7.5 3.358-7.5 7.5s3.357 7.5 7.5 7.5h35.943l26.397 26.994c3.485 3.564 8.261 5.563 13.222 5.563.305 0 .611-.008.918-.023 5.285-.263 10.213-2.784 13.52-6.916l20.497-25.618h14.935c25.37 0 46.011-20.64 46.011-46.01v-159.083c-.001-25.37-20.642-46.01-46.012-46.01z"/><path d="m322.563 157.396-42.764 42.765c-.477.475-1.016.918-1.649 1.355-3.41 2.35-4.271 7.021-1.92 10.431 1.455 2.112 3.799 3.245 6.183 3.245 1.467 0 2.949-.429 4.249-1.325 1.37-.944 2.628-1.985 3.741-3.097l42.768-42.768c2.929-2.929 2.929-7.678 0-10.606-2.931-2.928-7.679-2.928-10.608 0z"/><path d="m345.182 134.778c-2.929 2.929-2.929 7.678.001 10.606 2.928 2.93 7.677 2.929 10.606 0l7.901-7.902c24.048-24.048 24.048-63.179 0-87.227-11.65-11.65-27.139-18.065-43.614-18.065s-31.963 6.416-43.613 18.065l-4.016 4.016-5.867-5.637c-11.713-11.253-27.113-17.355-43.35-17.199-16.242.163-31.512 6.577-42.995 18.061l-.76.76c-24.049 24.048-24.049 63.179 0 87.227l19.382 19.382c1.464 1.464 3.384 2.197 5.303 2.197s3.839-.732 5.303-2.197c2.929-2.929 2.929-7.678 0-10.606l-19.382-19.382c-18.2-18.2-18.2-47.814-.001-66.012l.76-.76c17.838-17.84 47.154-18.133 65.347-.653l11.169 10.73c2.945 2.829 7.613 2.784 10.5-.105l9.214-9.214c18.2-18.201 47.814-18.199 66.013 0 8.817 8.816 13.673 20.539 13.673 33.007 0 12.469-4.855 24.191-13.673 33.007z"/><path d="m273.396 323.804h-13.069c-.232 0-.421-.188-.421-.42v-20.257c0-4.142-3.358-7.5-7.5-7.5s-7.5 3.358-7.5 7.5v20.257c0 8.503 6.918 15.42 15.421 15.42h13.069c9.984 0 18.107 8.123 18.107 18.107v68.154c0 1.99-.625 3.889-1.808 5.49l-29.142 39.463c-.953 1.29-1.467 2.852-1.467 4.455v27.688c0 4.142 3.357 7.5 7.5 7.5s7.5-3.358 7.5-7.5v-25.219l27.675-37.477c3.102-4.2 4.741-9.18 4.741-14.401v-68.154c.001-18.254-14.85-33.106-33.106-33.106z"/><path d="m244.906 271.164c0 4.142 3.358 7.5 7.5 7.5s7.5-3.358 7.5-7.5v-71.968c0-17.169-13.968-31.137-31.136-31.137s-31.136 13.968-31.136 31.137v67.706c-3.719-1.893-7.921-2.968-12.372-2.968h-7.53c-8.856 0-16.739 4.231-21.745 10.775-4.816-4.213-11.111-6.775-17.997-6.775h-7.53c-9.688 0-18.211 5.064-23.076 12.68-4.62-3.558-10.398-5.68-16.666-5.68h-7.53c-15.093 0-27.372 12.279-27.372 27.371v84.01c0 4.142 3.358 7.5 7.5 7.5s7.5-3.358 7.5-7.5v-84.01c0-6.821 5.55-12.371 12.372-12.371h7.53c6.822 0 12.372 5.55 12.372 12.371v1.954c0 4.142 3.358 7.5 7.5 7.5s7.5-3.358 7.5-7.5v-8.954c0-6.821 5.55-12.371 12.371-12.371h7.53c6.822 0 12.372 5.55 12.372 12.371v8.954c0 4.142 3.358 7.5 7.5 7.5s7.5-3.358 7.5-7.5c0 0 0-12.488 0-12.954 0-6.821 5.55-12.371 12.371-12.371h7.53c6.821 0 12.371 5.55 12.371 12.371v.01 12.944c0 4.142 3.358 7.5 7.5 7.5s7.5-3.358 7.5-7.5v-105.064c0-8.898 7.239-16.137 16.136-16.137s16.136 7.239 16.136 16.137v71.969z"/><path d="m75.271 441.022c-2.875-3.665-4.458-8.247-4.458-12.903v-9.842c0-4.142-3.358-7.5-7.5-7.5s-7.5 3.358-7.5 7.5v9.842c0 7.997 2.719 15.868 7.655 22.161l11.088 14.136v37.745c0 4.142 3.358 7.5 7.5 7.5s7.5-3.358 7.5-7.5v-40.335c0-1.678-.563-3.308-1.599-4.629z"/></g></g></svg>