<svg id="Capa_1" enable-background="new 0 0 512.632 512.632" height="512" viewBox="0 0 512.632 512.632" width="512" xmlns="http://www.w3.org/2000/svg"><g><g><g id="XMLID_222_"><g><path d="m255.816 7.001c125.53 0 227.3 101.76 227.3 227.29 0 125.54-101.77 227.3-227.3 227.3s-227.3-101.76-227.3-227.3c0-125.53 101.77-227.29 227.3-227.29z" fill="#c8effe"/></g></g><path d="m125.356 234.291c0-108.911 76.649-199.923 178.915-222.114-15.605-3.386-31.837-5.176-48.456-5.176-125.53 0-227.3 101.76-227.3 227.29 0 125.54 101.77 227.3 227.3 227.3 16.619 0 32.815-1.8 48.42-5.186-102.265-22.192-178.879-113.194-178.879-222.114z" fill="#99e6fc"/><g><path d="m256.896 273.331c-64 0-115.89 51.89-115.89 115.9 0 43.274 23.719 81.003 58.86 100.91v-.01l9.189-3.078 97.413-1.103 7.267 4.302c35.251-19.877 59.06-57.665 59.06-101.02.001-64.011-51.889-115.901-115.899-115.901z" fill="#98bce5"/><path d="m199.866 490.131 21.946-26.825c-16.718-20.086-26.793-45.898-26.793-74.075 0-54.71 37.927-100.562 88.903-112.732-8.667-2.069-17.726-3.168-27.026-3.168-64 0-115.89 51.89-115.89 115.9 0 43.273 23.719 81.002 58.859 100.909z" fill="#7bacdf"/><ellipse cx="256.9" cy="389.233" fill="#5f99d7" rx="85.899" ry="85.899" transform="matrix(.526 -.851 .851 .526 -209.262 403.134)"/><path d="m227.922 470.089c-20.349-20.881-32.903-49.397-32.903-80.859 0-31.458 12.551-59.971 32.896-80.852-33.144 11.918-56.913 43.658-56.913 80.854-.001 37.2 23.772 68.941 56.92 80.857z" fill="#3c87d0"/><g><g id="XMLID_224_"><g><path d="m279.926 308.711h-44.05l-13.66-4.49c-1.99-.65-4.03.83-4.03 2.92v37.89l14.074 12.624h54.929l8.427-12.624v-20.63c0-8.67-7.02-15.69-15.69-15.69z" fill="#a79ba7"/><path d="m240.166 308.711h-4.29l-13.66-4.49c-1.99-.65-4.03.83-4.03 2.92v37.89l14.074 12.624h21.98l-14.074-12.624z" fill="#918291"/><path d="m305.986 446.441-32.54-27.03-5.692-4.716-19.67-.244-7.918 4.96-32.55 27.03c-4.91 4.08-7.75 10.13-7.75 16.51v27.18c16.83 9.56 36.3 15 57.03 15 20.65 0 40.05-5.4 56.84-14.88v-27.3c0-6.38-2.84-12.43-7.75-16.51z" fill="#f37c7c"/><path d="m278.514 423.621-5.068-4.21-5.692-4.716-19.669-.244-7.918 4.96-32.55 27.03c-4.91 4.08-7.75 10.13-7.75 16.51v27.18c6.623 3.762 13.66 6.875 21.017 9.28-.141-.079-.285-.153-.425-.233v-27.18c0-6.38 2.84-12.43 7.75-16.51l5.501-4.568c4.258-3.536 9.949-4.932 15.313-3.57 2.492.633 5.1.97 7.784.97 8.438 0 16.378-3.284 22.397-9.285 2.757-2.769 4.928-5.97 6.483-9.457z" fill="#ee6161"/><path d="m240.476 388.841c4.91 2.28 10.38 3.55 16.15 3.55h.55c5.34 0 10.42-1.09 15.04-3.06l1.23.26v27.09c0 .91-.07 1.81-.22 2.69-.57 3.52-2.24 6.66-4.65 9.08-3.02 3.01-7.18 4.87-11.77 4.87-8.27 0-15.13-6.04-16.42-13.95-.15-.87-.22-1.77-.22-2.69v-27.18z" fill="#ffdfcf"/><path d="m273.446 413.448v-23.857l-1.23-.26c-4.62 1.97-9.7 3.06-15.04 3.06h-.55c-1.325 0-2.633-.075-3.923-.206v7.777h-12.537v16.719c0 .92.07 1.82.22 2.69 1.29 7.91 8.15 13.95 16.42 13.95 2.043 0 4.023-.377 5.833-1.051-4.167-2.461-7.203-6.695-8.012-11.658-.001-.009-.003-.018-.004-.027-.362-2.248 1.316-4.316 3.583-4.523 4.468-.41 11.695-1.284 15.24-2.614z" fill="#ffcebf"/><path d="m218.186 345.031v22.2h4.122l17.858 32.732 20.159 4.431 9.918.855 4.412-1.052c12.475-6.351 20.961-19.289 20.961-34.255v-24.91h-77.43z" fill="#ffdfcf"/><path d="m262.456 400.843c-13.16-6.1-22.29-19.43-22.29-34.9v-20.912h-21.98v24.91c0 15.47 9.13 28.8 22.29 34.9 4.91 2.28 10.38 3.55 16.15 3.55h.55c5.34 0 10.42-1.09 15.04-3.06.31-.13.62-.26.92-.4.508-.232 1.043-.492 1.539-.745-4.308-.443-8.452-1.594-12.219-3.343z" fill="#ffcebf"/></g></g></g></g></g><g><path d="m421.988 68.624c-44.252-44.253-103.089-68.624-165.672-68.624s-121.42 24.371-165.672 68.624c-44.253 44.252-68.624 103.089-68.624 165.671 0 70.369 31.218 136.379 85.649 181.106 1.396 1.147 3.082 1.706 4.758 1.705 2.166 0 4.315-.934 5.799-2.739 2.63-3.2 2.167-7.926-1.033-10.556-10.914-8.967-20.822-18.855-29.667-29.495 9.095-3.644 18.867-7.007 29.167-10.036 3.974-1.168 6.248-5.336 5.08-9.311-1.169-3.974-5.335-6.248-9.311-5.08-12.248 3.6-23.799 7.669-34.442 12.116-25.019-34.851-39.382-76.485-40.859-120.211h70.928c.476 29.659 3.77 58.629 9.824 86.216.769 3.505 3.872 5.894 7.318 5.894.532 0 1.073-.057 1.614-.176 4.046-.888 6.606-4.887 5.718-8.933-5.823-26.537-8.999-54.425-9.472-83.001h125.724v4.539c0 4.142 3.357 7.5 7.5 7.5s7.5-3.358 7.5-7.5v-4.539h125.725c-.464 27.993-3.52 55.338-9.119 81.388-.87 4.05 1.708 8.038 5.758 8.908.53.114 1.061.169 1.583.169 3.458 0 6.568-2.407 7.325-5.926 5.819-27.08 8.989-55.485 9.455-84.539h70.927c-1.48 43.672-15.851 85.336-40.871 120.206-10.29-4.3-21.408-8.243-33.157-11.74-3.971-1.184-8.146 1.078-9.328 5.048s1.078 8.146 5.049 9.328c9.827 2.926 19.176 6.169 27.918 9.674-8.495 10.222-17.96 19.754-28.361 28.433-3.181 2.654-3.607 7.383-.954 10.563s7.384 3.606 10.563.953c53.563-44.695 84.282-110.29 84.282-179.965.002-62.581-24.369-121.418-68.622-165.67zm3.118 25.658c-12.209 4.909-25.38 9.225-39.331 12.918-8.4-26.319-19.369-49.933-32.404-69.664 21.208 10.485 40.792 24.475 58.01 41.694 4.835 4.834 9.405 9.862 13.725 15.052zm-176.29-79.141v107.631c-38.084-.48-74.572-4.611-107.369-12.007 11.066-34.308 26.667-63.456 45.22-84.52 19.847-6.624 40.732-10.389 62.149-11.104zm15 0c21.423.715 42.314 4.483 62.167 11.11 18.714 21.247 34.194 50.365 45.196 84.515-32.795 7.396-69.282 11.526-107.364 12.006v-107.631zm-162.566 64.089c17.216-17.217 36.797-31.205 58.002-41.69-13.195 19.884-24.132 43.475-32.469 69.64-13.924-3.689-27.071-7.999-39.259-12.899 4.322-5.189 8.892-10.217 13.726-15.051zm-23.247 27.35c13.725 5.746 28.647 10.757 44.532 14.98-8.828 32.334-13.852 68.046-14.447 105.235h-70.927c1.46-43.722 15.664-85.22 40.842-120.215zm45.087 120.215c.597-35.378 5.414-70.111 14.066-101.638 34.159 7.785 72.117 12.128 111.66 12.616v89.022zm140.726-89.022c39.54-.488 77.496-4.83 111.653-12.614 2.815 10.25 5.249 20.881 7.257 31.837.663 3.617 3.817 6.149 7.368 6.149.449 0 .904-.041 1.361-.125 4.074-.747 6.771-4.655 6.024-8.729-2.06-11.237-4.557-22.159-7.447-32.713 15.908-4.227 30.853-9.244 44.595-14.997 25.178 34.995 39.383 76.493 40.843 120.215h-70.93c-.217-13.15-.995-26.347-2.336-39.335-.424-4.12-4.102-7.116-8.23-6.69-4.12.425-7.115 4.11-6.689 8.23 1.288 12.479 2.038 25.159 2.253 37.795h-125.722z"/><path d="m256.9 265.834c-20.461 0-40.734 5.116-58.627 14.794-3.644 1.971-4.999 6.521-3.028 10.165 1.97 3.643 6.521 5 10.165 3.028 15.708-8.496 33.513-12.987 51.49-12.987 59.771 0 108.399 48.627 108.399 108.399 0 35.7-17.351 67.42-44.06 87.183v-13.463c0-1.888-.193-3.749-.546-5.565 18.852-17.656 29.606-42.311 29.606-68.154 0-22.708-8.297-44.621-23.363-61.703-2.739-3.106-7.479-3.403-10.586-.664-3.106 2.74-3.403 7.479-.664 10.586 12.647 14.34 19.613 32.729 19.613 51.781 0 20.212-7.845 39.561-21.725 54.102-.868-.94-1.794-1.835-2.793-2.665l-29.837-24.778v-6.644c13.282-8.062 22.175-22.663 22.175-39.303v-24.917-20.629c0-12.786-10.402-23.188-23.188-23.188h-42.85l-12.523-4.115c-3.212-1.057-6.764-.502-9.502 1.48s-4.373 5.185-4.373 8.565v37.885 24.917c0 16.557 8.807 31.094 21.979 39.18v6.767l-29.837 24.778c-.964.8-1.86 1.661-2.701 2.565-13.828-14.527-21.622-33.787-21.622-54.002 0-18.95 6.902-37.266 19.435-51.574 2.729-3.116 2.416-7.854-.7-10.583-3.115-2.729-7.854-2.416-10.583.7-14.93 17.044-23.151 38.871-23.151 61.458 0 25.833 10.674 50.353 29.44 68.004-.373 1.864-.576 3.775-.576 5.715v13.321c-26.598-19.772-43.864-51.427-43.864-87.041 0-29.488 11.641-57.066 32.778-77.654 2.967-2.89 3.029-7.638.14-10.605-2.891-2.967-7.64-3.031-10.606-.14-24.061 23.435-37.312 54.83-37.312 88.399 0 68.042 55.356 123.398 123.398 123.398 68.043 0 123.399-55.356 123.399-123.398-.001-68.041-55.357-123.398-123.4-123.398zm-9.238 150.849v-1.68c2.9.576 5.896.884 8.963.884h.552c2.999 0 5.928-.298 8.768-.849v1.645c0 5.041-4.101 9.141-9.141 9.141-5.042 0-9.142-4.101-9.142-9.141zm-14.124-100.846c.756.249 1.547.375 2.342.375h44.051c4.516 0 8.188 3.673 8.188 8.188v13.128h-62.437v-24.272zm-7.856 36.691h62.437v17.417c0 17.062-13.881 30.942-30.942 30.942h-.552c-17.062 0-30.942-13.881-30.942-30.942v-17.417zm-18.316 133.107v-22.682c0-4.166 1.838-8.082 5.043-10.743l25.191-20.92c4.414 5.789 11.378 9.533 19.203 9.533s14.789-3.745 19.203-9.533l25.191 20.919c3.205 2.662 5.043 6.578 5.043 10.743v22.785c-14.808 7.601-31.582 11.894-49.34 11.894-17.836.001-34.679-4.332-49.534-11.996z"/></g></g></svg>