<svg id="Capa_1" enable-background="new 0 0 512.36 512.36" height="512" viewBox="0 0 512.36 512.36" width="512" xmlns="http://www.w3.org/2000/svg"><g><g><g><path d="m134.438 134.803c-70.1 0-126.94 56.84-126.94 126.94 0 47.224 25.79 88.42 64.049 110.285l8.622-4.707 108.728-1.58 8.275 6.377c38.347-21.841 64.206-63.085 64.206-110.375 0-70.1-56.83-126.94-126.94-126.94z" fill="#98bce5"/><path d="m94.411 336.275c-15.207-20.929-24.178-46.682-24.178-74.532 0-59.274 40.64-109.063 95.572-123.029-10.034-2.551-20.544-3.911-31.372-3.911-70.1 0-126.94 56.84-126.94 126.94 0 47.222 25.788 88.417 64.045 110.283z" fill="#7bacdf"/><circle cx="134.44" cy="261.74" fill="#5f99d7" r="96.94"/><path d="m112.311 167.35c-42.825 10.038-74.811 48.548-74.811 94.39 0 45.844 31.989 84.355 74.817 94.39-25.831-23.235-42.08-56.914-42.08-94.394 0-37.472 16.247-71.149 42.074-94.386z" fill="#3c87d0"/><g id="XMLID_171_"><g><path d="m196.697 342.486c0-6.99-3.11-13.62-8.49-18.09l-35.65-29.6-7.379-7.564h-21.503l-7.568 7.564-35.65 29.6c-5.37 4.47-8.49 11.1-8.49 18.09l-.43 29.54c18.54 10.59 40.02 16.65 62.9 16.65 22.82 0 44.23-6.02 62.74-16.56z" fill="#ade194"/><path d="m157.717 299.08-5.16-4.284-7.379-7.564h-21.503l-7.568 7.564-35.65 29.6c-5.37 4.47-8.49 11.1-8.49 18.09l-.43 29.54c7.525 4.298 15.541 7.835 23.932 10.539l.411-28.231c0-6.99 3.12-13.62 8.49-18.09l9.442-7.84c4.018-3.336 9.302-4.888 14.436-3.936 1.976.366 4.011.558 6.089.558 8.888 0 17.234-3.462 23.486-9.733 3.006-3.005 5.36-6.498 7.006-10.307z" fill="#97da7b"/><path d="m152.557 261.656v30.15c0 1.01-.08 1.99-.24 2.95-.63 3.85-2.46 7.29-5.1 9.93-3.29 3.3-7.85 5.34-12.88 5.34-9.06 0-16.58-6.61-17.99-15.27-.16-.96-.24-1.94-.24-2.95v-30.25l.38-.82c5.45 2.55 11.53 3.98 17.95 3.98 6.34 0 12.35-1.39 17.74-3.88z" fill="#fed2a4"/><path d="m159.667 173.546h-48.25l-14.97-4.92c-2.17-.71-4.41.91-4.41 3.2v41.5l14.404 15.418h62.545l7.861-15.418v-22.6c0-9.49-7.69-17.18-17.18-17.18z" fill="#a79ba7"/><path d="m116.107 191.102c0-2.29 2.24-3.91 4.41-3.2l14.97 4.92h41.36v-2.097c0-9.49-7.69-17.18-17.18-17.18h-48.25l-14.97-4.92c-2.17-.71-4.41.91-4.41 3.2v41.5l14.404 15.418h9.666z" fill="#918291"/><path d="m176.847 213.326v26.99c0 17.08-10.11 31.81-24.67 38.52-5.39 2.49-11.4 3.88-17.74 3.88-6.42 0-12.5-1.43-17.95-3.98-14.45-6.76-24.45-21.42-24.45-38.42v-26.99z" fill="#fed2a4"/><path d="m140.557 278.736c-14.45-6.76-24.45-21.42-24.45-38.42v-26.99h-24.07v26.99c0 17 10 31.66 24.45 38.42 5.45 2.55 11.53 3.98 17.95 3.98 4.186 0 8.223-.617 12.037-1.745-2.039-.604-4.018-1.347-5.917-2.235z" fill="#ffbd86"/></g></g><g id="XMLID_172_"><g><path d="m407.66 7.942c-53.68 0-97.19 43.51-97.19 97.2 0 32.346 15.803 60.994 40.105 78.661l8.57-8.016 95.803 1.489 9.786 6.542c24.315-17.665 40.127-46.32 40.127-78.675-.001-53.691-43.511-97.201-97.201-97.201z" fill="#98bce5"/><path d="m377.669 151.688c-7.558-13.824-11.867-29.678-11.867-46.546 0-44.075 29.324-81.282 69.522-93.198-8.771-2.6-18.057-4.002-27.672-4.002-53.68 0-97.19 43.51-97.19 97.2 0 32.346 15.802 60.994 40.104 78.66z" fill="#7bacdf"/><path d="m407.657 172.326c-37.049 0-67.19-30.141-67.19-67.19 0-37.054 30.141-67.2 67.19-67.2 37.054 0 67.2 30.146 67.2 67.2 0 37.049-30.146 67.19-67.2 67.19z" fill="#5f99d7"/><path d="m390.8 170.183c-15.531-17.224-24.993-40.026-24.993-65.047 0-25.026 9.462-47.832 24.994-65.057-28.917 7.499-50.334 33.823-50.334 65.057 0 31.229 21.416 57.548 50.333 65.047z" fill="#3c87d0"/></g></g><g id="XMLID_173_"><g><g><path d="m407.657 121.646c31.5 0 57.03 25.53 57.03 57.03l.049 5.139c-16.18 12.05-35.34 18.511-57.079 18.511-21.73 0-40.901-6.473-57.091-18.523l.061-5.127c0-15.75 6.38-30.01 16.71-40.33 10.32-10.32 24.57-16.7 40.32-16.7z" fill="#f37c7c"/><path d="m407.657 37.936c23.12 0 41.86 18.74 41.86 41.85 0 23.12-18.74 41.86-41.86 41.86-23.11 0-41.85-18.74-41.85-41.86 0-23.11 18.74-41.85 41.85-41.85z" fill="#ffe5c2"/></g></g></g><g id="XMLID_210_"><g><g><path d="m372.96 193.341c0-15.75 6.38-30.01 16.71-40.33 10.32-10.32 24.57-16.7 40.32-16.7 6.749 0 13.235 1.174 19.244 3.326-10.402-11.072-25.183-17.991-41.576-17.991-15.75 0-30 6.38-40.32 16.7-10.33 10.32-16.71 24.58-16.71 40.33l-.061 5.127c6.919 5.149 14.391 9.279 22.365 12.322z" fill="#ee6161"/><path d="m394.926 78.676c0-17.42 10.675-32.355 25.816-38.655-4.111-1.349-8.523-2.085-13.085-2.085-23.11 0-41.85 18.74-41.85 41.85 0 23.12 18.74 41.86 41.85 41.86 5.693 0 11.12-1.14 16.067-3.198-16.716-5.488-28.798-21.214-28.798-39.772z" fill="#fed2a4"/></g></g></g><g id="XMLID_191_"><path d="m407.664 310.028c-53.68 0-97.19 43.52-97.19 97.2 0 32.376 15.831 61.05 40.171 78.715l9.265-3.964 98.978 2.006 5.8 1.96c24.344-17.665 40.176-46.341 40.176-78.718 0-53.679-43.51-97.199-97.2-97.199z" fill="#98bce5"/><path d="m375.489 453.937c-7.609-13.862-11.947-29.774-11.947-46.704 0-44.479 29.873-81.981 70.651-93.531-8.437-2.389-17.34-3.669-26.543-3.669-53.68 0-97.19 43.52-97.19 97.2 0 32.374 15.829 61.047 40.166 78.712z" fill="#7bacdf"/><g><path d="m407.657 474.426c-37.049 0-67.19-30.146-67.19-67.2s30.141-67.2 67.19-67.2c37.054 0 67.2 30.146 67.2 67.2s-30.146 67.2-67.2 67.2z" fill="#5f99d7"/></g><path d="m387.783 471.424c-15.078-17.124-24.235-39.588-24.235-64.198s9.128-47.065 24.206-64.189c-27.377 8.495-47.287 34.052-47.287 64.189s19.94 55.703 47.316 64.198z" fill="#3c87d0"/></g><circle cx="407.661" cy="381.887" fill="#ffe5c2" r="41.857"/><path d="m391.485 381.887c0-18.636 12.208-34.421 29.042-39.843-4.047-1.303-8.385-2.014-12.866-2.014-23.117 0-41.857 18.74-41.857 41.857s18.74 41.857 41.857 41.857c4.481 0 8.818-.711 12.866-2.014-16.834-5.422-29.042-21.207-29.042-39.843z" fill="#fed2a4"/><g id="XMLID_192_"><g><path d="m464.687 485.946c-16.01 11.63-35.72 18.48-57.03 18.48s-41.01-6.86-57.03-18.48v-5.17c0-15.75 6.38-30.01 16.71-40.33 10.32-10.32 24.57-16.7 40.32-16.7 31.5 0 57.03 25.53 57.03 57.03z" fill="#fee97d"/></g></g><path d="m372.334 494.959c0-15.75 6.38-30.01 16.71-40.33 10.32-10.32 24.57-16.7 40.32-16.7 6.84 0 13.423 1.211 19.5 3.418-10.381-10.838-25.012-17.601-41.206-17.601-15.75 0-30 6.38-40.32 16.7-10.33 10.32-16.71 24.58-16.71 40.33v5.17c6.648 4.822 13.95 8.832 21.718 11.865z" fill="#fee45a"/></g></g><g><path d="m211.554 191.374c-2.793-3.059-7.537-3.273-10.596-.48s-3.274 7.537-.48 10.596c6.846 7.496 12.336 16.054 16.319 25.437 1.213 2.856 3.988 4.571 6.907 4.571.977 0 1.971-.192 2.927-.598 3.813-1.619 5.592-6.021 3.973-9.834-4.647-10.95-11.057-20.94-19.05-29.692z"/><path d="m415.161 302.801v-11.744c0-4.142-3.358-7.5-7.5-7.5s-7.5 3.358-7.5 7.5v11.744c-40.927 2.911-75.427 29.446-89.9 66.014l-60.592-37.89c12.189-20.225 19.211-43.9 19.211-69.185 0-24.983-6.858-48.392-18.779-68.456l64.452-40.304c16.322 31.632 48.293 53.924 85.609 56.579v11.836c0 4.142 3.358 7.5 7.5 7.5s7.5-3.358 7.5-7.5v-11.836c54.244-3.858 97.199-49.219 97.199-104.427 0-57.731-46.968-104.699-104.699-104.699s-104.7 46.967-104.7 104.698c0 11.854 1.984 23.252 5.63 33.885l-66.861 41.81c-24.563-32.49-63.515-53.526-107.292-53.526-74.129 0-134.439 60.309-134.439 134.44s60.31 134.44 134.44 134.44c43.472 0 82.183-20.746 106.774-52.851l64.432 40.292c-1.756 7.59-2.684 15.493-2.684 23.608 0 57.731 46.968 104.699 104.699 104.699s104.699-46.968 104.699-104.699c0-55.209-42.955-100.569-97.199-104.428zm20.382-182.313c12.957-8.905 21.475-23.823 21.475-40.699 0-3.251-.322-6.428-.925-9.505 7.083 9.812 11.267 21.847 11.267 34.847 0 11.707-3.438 23.022-9.792 32.687-5.96-7.266-13.471-13.214-22.025-17.33zm-62.239-40.699c0-18.944 15.413-34.357 34.357-34.357s34.357 15.413 34.357 34.357c0 18.945-15.413 34.357-34.357 34.357s-34.357-15.412-34.357-34.357zm6.475 40.699c-8.552 4.114-16.06 10.06-22.02 17.325-6.356-9.663-9.796-20.975-9.796-32.682 0-13.001 4.185-25.038 11.268-34.851-.604 3.078-.927 6.256-.927 9.509 0 16.876 8.518 31.794 21.475 40.699zm-21.649 58.189c0-27.312 22.22-49.531 49.531-49.531s49.531 22.219 49.531 49.531v1.198c-14.203 9.443-31.234 14.954-49.531 14.954s-35.328-5.511-49.531-14.954zm49.531-163.245c49.46 0 89.699 40.239 89.699 89.699 0 24.587-9.946 46.893-26.023 63.112-.962-5.889-2.724-11.509-5.17-16.751 10.467-13.179 16.194-29.441 16.194-46.361 0-41.189-33.51-74.699-74.699-74.699s-74.699 33.51-74.699 74.699c0 16.92 5.727 33.181 16.194 46.361-2.446 5.242-4.208 10.863-5.17 16.751-16.077-16.219-26.023-38.525-26.023-63.112-.002-49.46 40.237-89.699 89.697-89.699zm-328.189 352.324v-25.274c0-4.775 2.107-9.264 5.781-12.315l28.175-23.398c4.673 6.509 12.3 10.761 20.906 10.761s16.233-4.252 20.906-10.761l28.174 23.397c3.674 3.051 5.781 7.54 5.781 12.315v25.387c-16.411 8.502-35.031 13.311-54.754 13.311-19.81 0-38.505-4.853-54.969-13.423zm89.874-161.933h-69.812v-28.286l9.542 3.135c.756.249 1.546.375 2.341.375h48.247c5.339 0 9.683 4.344 9.683 9.683v15.093zm-69.812 15h69.813v19.489c0 19.248-15.659 34.907-34.906 34.907s-34.906-15.659-34.906-34.907v-19.489zm34.906 69.395c3.645 0 7.195-.403 10.62-1.149v2.734c0 5.915-4.812 10.727-10.727 10.727s-10.726-4.812-10.726-10.727v-2.783c3.49.776 7.112 1.198 10.833 1.198zm69.754 68.416v-16.152c0-.991-.056-1.974-.149-2.95 22.186-19.854 34.834-47.965 34.834-77.792 0-1.93-.067-3.944-.212-6.339-.25-4.134-3.796-7.288-7.938-7.034-4.134.25-7.284 3.804-7.034 7.938.126 2.086.185 3.813.185 5.435 0 23.566-9.225 45.887-25.583 62.558-1.508-2.079-3.277-3.991-5.3-5.671l-32.937-27.353v-8.154c14.536-8.733 24.287-24.652 24.287-42.809v-26.989-22.592c0-13.61-11.073-24.683-24.683-24.683h-47.046l-13.824-4.542c-3.3-1.085-6.952-.517-9.765 1.521-2.814 2.038-4.495 5.328-4.495 8.803v41.494 26.989c0 18.07 9.653 33.927 24.073 42.686v8.277l-32.937 27.352c-1.981 1.645-3.717 3.513-5.205 5.541-16.274-16.662-25.465-38.97-25.465-62.428 0-22.328 8.311-43.726 23.402-60.251 2.793-3.059 2.578-7.803-.48-10.596s-7.802-2.578-10.596.48c-17.621 19.297-27.326 44.286-27.326 70.367 0 29.679 12.584 57.778 34.635 77.62-.104 1.032-.163 2.073-.163 3.122v15.996c-29.952-21.724-49.472-56.992-49.472-96.738 0-65.86 53.581-119.44 119.44-119.44s119.44 53.581 119.44 119.44c0 39.841-19.613 75.183-49.686 96.894zm203.467 57.61c-18.944 0-34.357-15.413-34.357-34.357s15.413-34.357 34.357-34.357 34.357 15.413 34.357 34.357c0 18.945-15.413 34.357-34.357 34.357zm-27.882 6.342c-8.554 4.115-16.064 10.064-22.024 17.33-6.355-9.665-9.792-20.98-9.792-32.688 0-12.995 4.181-25.027 11.26-34.837-.602 3.073-.918 6.248-.918 9.496-.001 16.876 8.517 31.794 21.474 40.699zm-21.649 59.387v-1.198c0-27.312 22.22-49.531 49.531-49.531s49.531 22.219 49.531 49.531v1.198c-14.203 9.443-31.234 14.954-49.531 14.954s-35.328-5.511-49.531-14.954zm113.206-11.632c-.961-5.884-2.722-11.499-5.164-16.738 7.015-8.844 11.964-19.189 14.407-30.213.896-4.044-1.655-8.049-5.7-8.945-4.038-.894-8.048 1.655-8.945 5.7-1.563 7.05-4.416 13.751-8.367 19.771-5.96-7.267-13.47-13.215-22.024-17.33 12.957-8.905 21.475-23.823 21.475-40.699 0-3.25-.322-6.426-.925-9.501 4.135 5.731 7.307 12.251 9.22 19.368 1.076 4 5.193 6.369 9.189 5.297 4-1.075 6.372-5.189 5.297-9.189-8.755-32.578-38.419-55.331-72.138-55.331-41.189 0-74.699 33.51-74.699 74.699 0 16.92 5.727 33.181 16.194 46.361-2.446 5.242-4.208 10.863-5.17 16.751-16.077-16.219-26.023-38.525-26.023-63.112 0-49.46 40.239-89.699 89.699-89.699s89.699 40.239 89.699 89.699c-.001 24.586-9.948 46.891-26.025 63.111z"/><path d="m407.661 242.666c-4.142 0-7.5 3.358-7.5 7.5v11.573c0 4.142 3.358 7.5 7.5 7.5s7.5-3.358 7.5-7.5v-11.573c0-4.142-3.358-7.5-7.5-7.5z"/></g></g></svg>